<?xml version="1.0" encoding="UTF-8"?>
<svg id="Layer_1" data-name="Layer 1" xmlns="http://www.w3.org/2000/svg" viewBox="0 0 1024 1024">
  <defs>
    <style>
      .cls-1 {
        fill: #231f20;
        font-family: HoboStd, 'Hobo Std';
        font-size: 220px;
      }
    </style>
  </defs>
  <g id="logo">
    <g>
      <path d="M814.32,607.82l-10.66,4.13v59.92c0,3.48-12.3,5.48-16.49,3.62-2.66-.78-8.22-7.47-8.22-8.95v-58.59h-105.04v112.83c0,1.48-5.56,8.17-8.22,8.95-4.19,1.86-16.49-.14-16.49-3.62v-114.17l-4.63-4h-109.67v149.93c0,6.92-24.71,4.08-24.71-2.67v-147.27h-111.22v112.95c0,3.48-12.3,5.48-16.49,3.62-2.66-.78-8.22-7.47-8.22-8.95v-107.62h-126.66v46.31c0,1.48-5.56,8.17-8.22,8.95-4.19,1.86-16.49-.14-16.49-3.62v-47.64l-10.66-4.13-157.13.11c209.1,111.44,368.07,261.82,646.98,154.52l275.8-156.46-163.53,1.83Z"/>
      <path d="M222.86,586.63v-43.98c0-3.48,12.3-5.48,16.49-3.62,2.66.78,8.22,7.47,8.22,8.95v38.65h126.66v-90.13c0-6.74,24.71-9.58,24.71-2.67v92.8h111.22v-54.06c0-6.74,24.71-9.58,24.71-2.67v56.72h114.31v-97.29c0-3.48,12.3-5.48,16.49-3.62,2.66.78,8.22,7.47,8.22,8.95v91.96h105.04v-38.65c0-1.48,5.56-8.17,8.22-8.95,4.19-1.86,16.49.14,16.49,3.62v43.98h208.32l2.13-1.21c-142.1,4.19-289.67-150.01-425.7-127.32-24.61,4.11-64.35,32.2-71.22,32.2-6.78,0-42.31-25.35-62.46-29.9-130.32-29.43-269.02,103.23-401.56,126.23h169.69Z"/>
    </g>
    <g>
      <text class="cls-1" transform="translate(44.49 558.44) rotate(-20.76)"><tspan x="0" y="0">A</tspan></text>
      <text class="cls-1" transform="translate(193.15 495.14) rotate(-25.01)"><tspan x="0" y="0">N</tspan></text>
      <text class="cls-1" transform="translate(327.67 433.19) rotate(-12.22)"><tspan x="0" y="0">I</tspan></text>
      <text class="cls-1" transform="translate(390.27 426.62) rotate(1.91)"><tspan x="0" y="0">S</tspan></text>
      <text class="cls-1" transform="translate(529.44 428.71) rotate(-.43)"><tspan x="0" y="0">E</tspan></text>
      <text class="cls-1" transform="translate(650.27 411.55) rotate(23.06)"><tspan x="0" y="0">M</tspan></text>
      <text class="cls-1" transform="translate(826.45 493.71) rotate(22.54)"><tspan x="0" y="0">E</tspan></text>
    </g>
  </g>
</svg>